<?xml version="1.0" encoding="utf-8"?>
<!-- Generator: Adobe Illustrator 25.0.1, SVG Export Plug-In . SVG Version: 6.00 Build 0)  -->
<svg version="1.1" id="Layer_1" xmlns="http://www.w3.org/2000/svg" xmlns:xlink="http://www.w3.org/1999/xlink" x="0px" y="0px"
	 viewBox="0 0 137 102" style="enable-background:new 0 0 137 102;" xml:space="preserve">
<style type="text/css">
	.st0{fill:#FFFFFF;}
</style>
<path class="st0" d="M70.7,60.7l7.1-1.5c0.9,4,4.1,6.1,9.8,6.1c2.6,0,4.6-0.5,6-1.6c1.4-1,2.1-2.3,2.1-3.8c0-1.1-0.3-2.1-1-3.1
	c-0.6-0.9-10.4-8.7-12.5-9.2l0.7,5c-2.7-0.7-4.6-1.5-5.9-2.4c-1.3-0.9-2.3-2.1-3.1-3.7c-0.8-1.6-1.1-3.3-1.1-5.2
	c0-3.6,1.4-6.6,4.1-8.7c2.7-2.2,6.2-3.3,10.4-3.3c3.5,0,6.6,0.8,9.4,2.3c2.8,1.5,4.5,3.7,5.3,6.5l-7,1.7c-1.1-3.1-3.6-4.6-7.5-4.6
	c-2.3,0-4,0.5-5.2,1.4c-1.2,1-1.8,2.2-1.8,3.6c0,2.3,10.9,9.9,14.6,10.8l-2-4.2c4.2,1.1,7,2.6,8.4,4.7c1.4,2.1,2.1,4.3,2.1,6.8
	c0,4-1.5,7.1-4.5,9.4c-3,2.3-6.9,3.4-11.7,3.4c-4,0-7.6-0.8-10.6-2.5C73.7,66.9,71.7,64.3,70.7,60.7z"/>
<path class="st0" d="M63.5,35.2c-0.2-0.3-0.4-0.5-0.7-0.8l-9.3,28.2c0.3,1.7,6.6-14.7,6.6-12.5c0,5.7-0.9,9.7-2.7,11.9
	c-1.3,1.6-2.9,2.6-4.6,3l-2,6.2c5.2,0,9.4-2,12.6-5.8c3.2-3.9,4.8-8.9,4.8-15.2C68.1,44.1,66.6,39.2,63.5,35.2z"/>
<path class="st0" d="M62.7,34.2c-3-3.3-6.9-5-11.7-5c-4.8,0-8.7,1.7-11.8,5l11.8,20.4L62.7,34.2z"/>
<path class="st0" d="M43.8,61.4c-1.6-2.5-2.4-6.3-2.4-11.2c0-2.3,7,14.1,7.3,12.3l-10-28c-0.2,0.2-0.3,0.3-0.5,0.5
	c-3.2,4-4.8,8.9-4.8,14.9c0,6,1.5,11,4.5,15s7.2,6.1,12.6,6.1c0,0,0.1,0,0.1,0l-2-6.1C46.7,64.6,45.1,63.4,43.8,61.4z"/>
<polygon class="st0" points="50.8,71.1 50.8,71.1 50.8,71.1 "/>
</svg>
