<?xml version="1.0" encoding="utf-8"?>
<!-- Generator: Adobe Illustrator 25.0.1, SVG Export Plug-In . SVG Version: 6.00 Build 0)  -->
<svg version="1.1" id="Layer_1" xmlns="http://www.w3.org/2000/svg" xmlns:xlink="http://www.w3.org/1999/xlink" x="0px" y="0px"
	 viewBox="0 0 75.1 47.3" style="enable-background:new 0 0 75.1 47.3;" xml:space="preserve">
<style type="text/css">
	.st0{fill:#FFFFFF;}
</style>
<path class="st0" d="M40.7,33.9l7.1-1.5c0.9,4,4.1,6.1,9.8,6.1c2.6,0,4.6-0.5,6-1.6c1.4-1,2.1-2.3,2.1-3.8c0-1.1-0.3-2.1-1-3.1
	c-0.6-0.9-10.4-8.7-12.5-9.2l0.7,5c-2.7-0.7-4.6-1.5-5.9-2.4s-2.3-2.1-3.1-3.7c-0.8-1.6-1.1-3.3-1.1-5.2c0-3.6,1.4-6.6,4.1-8.7
	c2.7-2.2,6.2-3.3,10.4-3.3c3.5,0,6.6,0.8,9.4,2.3c2.8,1.5,4.5,3.7,5.3,6.5L65,13c-1.1-3.1-3.6-4.6-7.5-4.6c-2.3,0-4,0.5-5.2,1.4
	c-1.2,1-1.8,2.2-1.8,3.6c0,2.3,10.9,9.9,14.6,10.8l-2-4.2c4.2,1.1,7,2.6,8.4,4.7c1.4,2.1,2.1,4.3,2.1,6.8c0,4-1.5,7.1-4.5,9.4
	s-6.9,3.4-11.7,3.4c-4,0-7.6-0.8-10.6-2.5C43.7,40.1,41.7,37.5,40.7,33.9z"/>
<path class="st0" d="M33.5,8.4c-0.2-0.3-0.4-0.5-0.7-0.8l-9.3,28.2c0.3,1.7,6.6-14.7,6.6-12.5c0,5.7-0.9,9.7-2.7,11.9
	c-1.3,1.6-2.9,2.6-4.6,3l-2,6.2c5.2,0,9.4-2,12.6-5.8c3.2-3.9,4.8-8.9,4.8-15.2C38.1,17.3,36.6,12.4,33.5,8.4z"/>
<path class="st0" d="M32.7,7.4c-3-3.3-6.9-5-11.7-5s-8.7,1.7-11.8,5L21,27.8L32.7,7.4z"/>
<path class="st0" d="M13.8,34.6c-1.6-2.5-2.4-6.3-2.4-11.2c0-2.3,7,14.1,7.3,12.3l-10-28C8.5,7.9,8.4,8,8.2,8.2
	c-3.2,4-4.8,8.9-4.8,14.9s1.5,11,4.5,15s7.2,6.1,12.6,6.1h0.1l-2-6.1C16.7,37.8,15.1,36.6,13.8,34.6z"/>
<path class="st0" d="M20.8,44.3L20.8,44.3L20.8,44.3z"/>
</svg>
