<?xml version="1.0" encoding="utf-8"?>
<!-- Generator: Adobe Illustrator 25.0.1, SVG Export Plug-In . SVG Version: 6.00 Build 0)  -->
<svg version="1.1" id="Layer_1" xmlns="http://www.w3.org/2000/svg" xmlns:xlink="http://www.w3.org/1999/xlink" x="0px" y="0px"
	 viewBox="0 0 137 102" style="enable-background:new 0 0 137 102;" xml:space="preserve">
<style type="text/css">
	.st0{fill:#8E1928;}
	.st1{fill:#1A1A1A;}
	.st2{fill:url(#SVGID_1_);}
</style>
<path class="st0" d="M53.5,71.3c-7.4,0-12.3-5.4-14.1-12.5h-6.6c2.2,10.6,9.9,17.4,20.3,17.4c10,0,18.4-6,20.9-17.4h-6.5
	C65.7,66,60.8,71.3,53.5,71.3z"/>
<path class="st0" d="M53.6,33c9.1,0,13.9,8,14.7,16.3h6.4c-0.9-12.6-8.8-21.2-20.8-21.2c-11.5,0-20.2,8.3-21.4,21.2h6.4
	C39.7,40.4,44.6,33,53.6,33z"/>
<path class="st1" d="M95.4,49.6c-6.4-2.5-9.2-4.6-9.2-9c0-3.2,2.4-7,8.8-7c4.2,0,7.3,1.4,8.8,2.2l1.7-4.9c-2.1-1.2-5.5-2.3-10.3-2.3
	c-9,0-15,5.4-15,12.6c0,3.6,1.7,6.7,4.1,8.9l11.9-0.3C95.9,49.8,95.7,49.7,95.4,49.6z"/>
<path class="st1" d="M101.2,59.7c0,4.7-3.6,7.9-9.7,7.9c-4.1,0-8.1-1.4-10.8-3l-1.5,5c2.5,1.7,7.4,3,11.9,3c11,0,16.3-6.2,16.3-13.4
	c0-1.5-0.8-3.5-1.1-4.7l-6.3,0.7C100.7,56.5,101.2,58,101.2,59.7z"/>
<g>
	<linearGradient id="SVGID_1_" gradientUnits="userSpaceOnUse" x1="23.7781" y1="52.7142" x2="109.2446" y2="52.7142">
		<stop  offset="0" style="stop-color:#8E1928"/>
		<stop  offset="9.623208e-02" style="stop-color:#8D1D29"/>
		<stop  offset="0.2153" style="stop-color:#8A282C"/>
		<stop  offset="0.3464" style="stop-color:#843432"/>
		<stop  offset="0.4852" style="stop-color:#7B4039"/>
		<stop  offset="0.5311" style="stop-color:#78433C"/>
		<stop  offset="0.5528" style="stop-color:#71403A"/>
		<stop  offset="0.6856" style="stop-color:#4B302C"/>
		<stop  offset="0.8087" style="stop-color:#302422"/>
		<stop  offset="0.9173" style="stop-color:#201D1C"/>
		<stop  offset="1" style="stop-color:#1A1A1A"/>
	</linearGradient>
	<path class="st2" d="M74,54.8c-5.5-0.4-11.1-0.5-16.6-0.5c-16.1-0.7-27.3-1.1-33.7-1.2c28,0.1,55.9-0.7,83.9-2.5
		C113.7,52.4,102.5,53.7,74,54.8z"/>
</g>
</svg>
